<?xml version="1.0" standalone="no"?><!DOCTYPE svg PUBLIC "-//W3C//DTD SVG 1.1//EN" "http://www.w3.org/Graphics/SVG/1.1/DTD/svg11.dtd"><svg t="1556606624825" class="icon" style="" viewBox="0 0 1027 1024" version="1.1" xmlns="http://www.w3.org/2000/svg" p-id="6432" xmlns:xlink="http://www.w3.org/1999/xlink" width="501.46484375" height="500"><defs><style type="text/css"></style></defs><path d="M810.839467 1024 213.506133 1024c-25.6 0-42.666667-17.066667-42.666667-42.666667l0-384L42.839467 597.333333c-17.066667 0-34.133333-8.533333-38.4-25.6C-4.093867 554.666667 0.1728 537.6 12.9728 524.8l469.333333-512c17.066667-17.066667 46.933333-17.066667 64 0l469.333333 512c12.8 12.8 12.8 29.866667 8.533333 46.933333C1015.639467 588.8 998.5728 597.333333 981.506133 597.333333l-128 0 0 384C853.506133 1006.933333 836.439467 1024 810.839467 1024zM256.1728 938.666667l512 0 0-384c0-25.6 17.066667-42.666667 42.666667-42.666667l72.533333 0L512.1728 106.666667 140.9728 512 213.506133 512c25.6 0 42.666667 17.066667 42.666667 42.666667L256.1728 938.666667z" p-id="6433"></path><path d="M597.506133 1024l-170.666667 0c-25.6 0-42.666667-17.066667-42.666667-42.666667l0-256c0-25.6 17.066667-42.666667 42.666667-42.666667l170.666667 0c25.6 0 42.666667 17.066667 42.666667 42.666667l0 256C640.1728 1006.933333 623.106133 1024 597.506133 1024zM469.506133 938.666667l85.333333 0 0-170.666667-85.333333 0L469.506133 938.666667z" p-id="6434"></path><path d="M512.1728 554.666667c-72.533333 0-128-55.466667-128-128s55.466667-128 128-128 128 55.466667 128 128S584.706133 554.666667 512.1728 554.666667zM512.1728 384c-25.6 0-42.666667 17.066667-42.666667 42.666667s17.066667 42.666667 42.666667 42.666667 42.666667-17.066667 42.666667-42.666667S537.7728 384 512.1728 384z" p-id="6435"></path></svg>