<?xml version="1.0" standalone="no"?><!DOCTYPE svg PUBLIC "-//W3C//DTD SVG 1.1//EN" "http://www.w3.org/Graphics/SVG/1.1/DTD/svg11.dtd"><svg t="1556254268130" class="icon" style="" viewBox="0 0 1024 1024" version="1.1" xmlns="http://www.w3.org/2000/svg" p-id="14873" xmlns:xlink="http://www.w3.org/1999/xlink" width="500" height="500"><defs><style type="text/css"></style></defs><path d="M512 1024C229.216 1024 0 794.784 0 512S229.216 0 512 0s512 229.216 512 512-229.216 512-512 512z m0-64c247.424 0 448-200.576 448-448S759.424 64 512 64 64 264.576 64 512s200.576 448 448 448zM480 255.936c0-17.632 14.208-31.936 32-31.936 17.664 0 32 14.272 32 31.936v224.128c0 17.632-14.208 31.936-32 31.936-17.664 0-32-14.272-32-31.936V255.936zM686.688 304c14.688-15.264 50.56 15.264 50.56 15.264A300.192 300.192 0 0 1 800 503.84C800 667.392 671.04 800 512 800s-288-132.608-288-296.16a300.16 300.16 0 0 1 64.48-186.816S320 289.056 336 304c16 14.944 11.936 41.056 2.688 52.736A236.128 236.128 0 0 0 288 503.84C288 632.448 388.704 736 512 736s224-103.552 224-232.16a236.16 236.16 0 0 0-49.312-145.344c-9.12-11.776-14.688-39.232 0-54.496z"  p-id="14874"></path></svg>